<?xml version="1.0" encoding="utf-8" standalone="yes"?>
<!DOCTYPE svg PUBLIC "-//W3C//DTD SVG 1.1//EN" "http://www.w3.org/Graphics/SVG/1.1/DTD/svg11.dtd">
<svg version="1.1" xmlns="http://www.w3.org/2000/svg" xmlns:xlink="http://www.w3.org/1999/xlink" width="0.4583333in" height="0.4583333in" class="slides-canvas" viewBox="0 0 33 33">
  <g text-rendering="geometricPrecision" transform="scale(1, 1)">
    <g transform="matrix(1, 0, 0, 1, -48, -151)">
      <path fill="#D24726" d="M47.5 167.16C47.5 158.25 54.72 151.02 63.63 151.02L63.63 151.02C72.54 151.02 79.77 158.25 79.77 167.16 79.77 167.16 79.77 167.16 79.77 167.16L79.77 167.16C79.77 176.07 72.54 183.29 63.63 183.29L63.63 183.29C54.72 183.29 47.5 176.07 47.5 167.16z" />
    </g>
  </g>
</svg>ill="#4F81BD" d="M459.05 318.64L492.06 330.12 492.06 330.12C488.39 340.68 483.46 350.76 477.39 360.15L477.39 360.15 448.04 341.15 448.04 341.15C452.6 334.11 456.29 326.55 459.05 318.64" />
      <path stroke-linecap="round" stroke-width="0.75" stroke="#FFFFFF" fill="none" d="M459.05 318.64L492.06 330.12 492.06 330.12C488.39 340.68 483.46 350.76 477.39 360.15L477.39 360.15 448.04 341.15 448.04 341.15C452.6 334.11 456.29 326.55 459.05 318.64" />
      <defs>
        <clipPath id="ClipRect_4bcd0154-d7a2-4454-8322-dffc5b405de4">
          <rect x="120" y="110" width="480" height="320" />
        </clipPath>
      </defs>
    </g>
    <g transform="matrix(0.8984224, 0.439132273, -0.439132273, 0.8984224, 342.8126, 208.285492)"><text font-family="Calibri" font-style="normal" font-weight="normal" font-stretch="normal" font-size="8.9775pt" fill="#FFFFFF" x="11.9375" y="25.56792"><tspan x="0.04270554" y="11.20392">Result</tspan><tspan xml:space="preserve" x="29.95729" y="11.20392"> </tspan><tspan x="11.9375" y="25.56792">1</tspan></text></g>
    <g transform="matrix(1, 0, 0, 1, -120, -110)">
      <path fill="#4F81BD" d="M448.04 341.15L477.39 360.15 477.39 360.15C472.42 367.82 466.71 374.99 460.34 381.55L460.34 381.55 435.26 357.21 435.26 357.21C440.03 352.29 444.31 346.91 448.04 341.15" />
      <path stroke-linecap="round" stroke-width="0.75" stroke="#FFFFFF" fill="none" d="M448.04 341.15L477.39 360.15 477.39 360.15C472.42 367.82 466.71 374.99 460.34 381.55L460.34 381.55 435.26 357.21 435.26 357.21C440.03 352.29 444.31 346.91 448.04 341.15" />
    </g>
    <g transform="matrix(0.782316267, 0.6228814, -0.6228814, 0.782316267, 333.013031, 229.6944)"><text font-family="Calibri" font-style="normal" font-weight="normal" font-stretch="normal" font-size="8.9775pt" fill="#FFFFFF" x="11.9375" y="25.56792"><tspan x="0.04270554" y="11.20392">Result</tspan><tspan xml:space="preserve" x="29.95729" y="11.20392"> </tspan><tspan x="11.9375" y="25.56792">3</tspan></text></g>
    <g transform="matrix(1, 0, 0, 1, -120, -110)">
      <path fill="#4F81BD" d="M435.26 357.21L460.34 381.55 460.34 381.55C456.1 385.93 451.57 390.02 446.8 393.8L446.8 393.8 425.1 366.39 425.1 366.39C428.68 363.56 432.07 360.49 435.26 357.21" />
      <path stroke-linecap="round" stroke-width="0.75" stroke="#FFFFFF" fill="none" d="M435.26 357.21L460.34 381.55 460.34 381.55C456.1 385.93 451.57 390.02 446.8 393.8L446.8 393.8 425.1 366.39 425.1 366.39C428.68 363.56 432.07 360.49 435.26 357.21" />
      <path fill="#4F81BD" d="M360 179.3L360 144.34 360 144.34C405.54 144.34 448.22 166.52 474.41 203.78L474.41 203.78 445.81 223.88 445.8 223.88C426.17 195.93 394.15 179.3 360 179.3" />
      <path stroke-linecap="round" stroke-width="0.75" stroke="#FFFFFF" fill="none" d="M360 179.3L360 144.34 360 144.34C405.54 144.34 448.22 166.52 474.41 203.78L474.41 203.78 445.81 223.88 445.8 223.88C426.17 195.93 394.15 179.3 360 179.3" />
    </g>
    <g transform="matrix(0.4610105, -0.887394667, 0.887394667, 0.4610105, 276.62207, 72.22598)"><text font-family="Calibri" font-style="normal" font-weight="normal" font-stretch="normal" font-size="8.9775pt" fill="#FFFFFF" x="11.9375" y="25.56792"><tspan x="0.04270554" y="11.20392">Result</tspan><tspan xml:space="preserve" x="29.95729" y="11.20392"> </tspan><tspan x="11.9375" y="25.56792">5</tspan></text></g>
    <g transform="matrix(1, 0, 0, 1, -120, -110)">
      <path fill="#4F81BD" d="M445.81 223.88L474.41 203.78 474.41 203.78C500.28 240.6 506.85 287.62 492.06 330.12L492.06 330.12 459.05 318.64 459.05 318.64C470.14 286.76 465.21 251.49 445.81 223.88" />
      <path stroke-linecap="round" stroke-width="0.75" stroke="#FFFFFF" fill="none" d="M445.81 223.88L474.41 203.78 474.41 203.78C500.28 240.6 506.85 287.62 492.06 330.12L492.06 330.12 459.05 318.64 459.05 318.64C470.14 286.76 465.21 251.49 445.81 223.88" />
    </g>
    <g transform="matrix(0.9903772, -0.138394549, 0.138394549, 0.9903772, 344.309753, 144.954987)"><text font-family="Calibri" font-style="normal" font-weight="normal" font-stretch="normal" font-size="8.9775pt" fill="#FFFFFF" x="11.9375" y="25.56792"><tspan x="0.04270554" y="11.20392">Result</tspan><tspan xml:space="preserve" x="29.95729" y="11.20392"> </tspan><tspan x="11.9375" y="25.56792">4</tspan></text></g>
    <g transform="matrix(1, 0, 0, 1, -120, -110)">
      <path fill="#4F81BD" d="M360 214.26L360 179.3 360 179.3C417.92 179.3 464.87 226.25 464.87 284.17 464.87 295.9 462.9 307.55 459.05 318.64L459.05 318.64 426.03 307.15 426.03 307.15C438.72 270.68 419.44 230.83 382.98 218.14 375.59 215.57 367.82 214.26 360 214.26" />
      <path stroke-linecap="round" stroke-width="0.75" stroke="#FFFFFF" fill="none" d="M360 214.26L360 179.3 360 179.3C417.92 179.3 464.87 226.25 464.87 284.17 464.87 295.9 462.9 307.55 459.05 318.64L459.05 318.64 426.03 307.15 426.03 307.15C438.72 270.68 419.44 230.83 382.98 218.14 375.59 215.57 367.82 214.26 360 214.26" />
    </g>
    <g transform="matrix(0.8150541, -0.579384863, 0.579384863, 0.8150541, 289.787659, 120.98999)"><text font-family="Calibri" font-style="normal" font-weight="normal" font-stretch="normal" font-size="8.9775pt" fill="#FFFFFF" x="12.9375" y="25.56792"><tspan x="0.1449881" y="11.20392">Resurs</tspan><tspan xml:space="preserve" x="31.85501" y="11.20392"> </tspan><tspan x="12.9375" y="25.56792">2</tspan></text></g>
    <g transform="matrix(1, 0, 0, 1, -120, -110)">
      <path fill="#4F81BD" d="M426.03 307.15L459.05 318.64 459.05 318.64C452.5 337.46 440.72 354.02 425.1 366.39L425.1 366.39 403.4 338.99 403.4 338.99C413.81 330.74 421.67 319.69 426.03 307.15" />
      <path stroke-linecap="round" stroke-width="0.75" stroke="#FFFFFF" fill="none" d="M426.03 307.15L459.05 318.64 459.05 318.64C452.5 337.46 440.72 354.02 425.1 366.39L425.1 366.39 403.4 338.99 403.4 338.99C413.81 330.74 421.67 319.69 426.03 307.15" />
    </g>
    <g transform="matrix(0.8150542, 0.579384744, -0.579384744, 0.8150542, 306.589844, 203.717438)"><text font-family="Calibri" font-style="normal" font-weight="normal" font-stretch="normal" font-size="8.9775pt" fill="#FFFFFF" x="12.9375" y="25.56792"><tspan x="0.1449881" y="11.20392">Resurs</tspan><tspan xml:space="preserve" x="31.85501" y="11.20392"> </tspan><tspan x="12.9375" y="25.56792">1</tspan></text></g>
    <g transform="matrix(1, 0, 0, 1, -120, -110)">
      <path fill="#4F81BD" d="M403.4 338.99L425.1 366.39 425.1 366.39C420.02 370.41 414.58 373.95 408.85 376.97L408.85 376.97 392.57 346.04 392.57 346.04C396.39 344.03 400.01 341.67 403.4 338.99" />
      <path stroke-linecap="round" stroke-width="0.75" stroke="#FFFFFF" fill="none" d="M403.4 338.99L425.1 366.39 425.1 366.39C420.02 370.41 414.58 373.95 408.85 376.97L408.85 376.97 392.57 346.04 392.57 346.04C396.39 344.03 400.01 341.67 403.4 338.99" />
      <path fill="#4F81BD" d="M392.57 346.04L408.85 376.97 408.85 376.97C404.13 379.45 399.23 381.57 394.19 383.31L394.19 383.31 382.8 350.27 382.8 350.27C386.16 349.11 389.42 347.69 392.57 346.04" />
      <path stroke-linecap="round" stroke-width="0.75" stroke="#FFFFFF" fill="none" d="M392.57 346.04L408.85 376.97 408.85 376.97C404.13 379.45 399.23 381.57 394.19 383.31L394.19 383.31 382.8 350.27 382.8 350.27C386.16 349.11 389.42 347.69 392.57 346.04" />
      <path fill="#C0504D" d="M314.72 189.58L299.63 158.05 299.62 158.05C311.09 152.56 323.24 148.66 335.76 146.46L335.76 146.46 341.82 180.89 341.82 180.89C332.43 182.54 323.32 185.47 314.72 189.58" />
      <path stroke-linecap="round" stroke-width="0.75" stroke="#FFFFFF" fill="none" d="M314.72 189.58L299.63 158.05 299.62 158.05C311.09 152.56 323.24 148.66 335.76 146.46L335.76 146.46 341.82 180.89 341.82 180.89C332.43 182.54 323.32 185.47 314.72 189.58" />
    </g>
    <g transform="matrix(0.3053898, 0.9522274, -0.9522274, 0.3053898, 211.862152, 38.9559174)"><text font-family="Calibri" font-style="normal" font-weight="normal" font-stretch="normal" font-size="8.9775pt" fill="#FFFFFF" x="11.9375" y="25.56792"><tspan x="0.04270554" y="11.20392">Result</tspan><tspan xml:space="preserve" x="29.95729" y="11.20392"> </tspan><tspan x="11.9375" y="25.56792">8</tspan></text></g>
    <g transform="matrix(1, 0, 0, 1, -120, -110)">
      <path fill="#C0504D" d="M255.72 295.29L220.96 298.99 220.96 298.99C216.08 253.17 234.08 207.89 269.09 177.93L269.09 177.93 291.82 204.49 291.82 204.49C265.56 226.96 252.06 260.92 255.72 295.29" />
      <path stroke-linecap="round" stroke-width="0.75" stroke="#FFFFFF" fill="none" d="M255.72 295.29L220.96 298.99 220.96 298.99C216.08 253.17 234.08 207.89 269.09 177.93L269.09 177.93 291.82 204.49 291.82 204.49C265.56 226.96 252.06 260.92 255.72 295.29" />
    </g>
    <g transform="matrix(0.929254353, 0.369440615, -0.369440615, 0.929254353, 117.724258, 109.955338)"><text font-family="Calibri" font-style="normal" font-weight="normal" font-stretch="normal" font-size="8.9775pt" fill="#FFFFFF" x="8.875" y="25.56792"><tspan x="0.04270554" y="11.20392">Result</tspan><tspan xml:space="preserve" x="29.95729" y="11.20392"> </tspan><tspan x="8.875" y="25.56792">11</tspan></text></g>
    <g transform="matrix(1, 0, 0, 1, -120, -110)">
      <path fill="#C0504D" d="M291.82 204.49L269.09 177.93 269.09 177.93C278.36 170 288.62 163.32 299.62 158.05L299.63 158.05 314.72 189.58 314.72 189.58C306.47 193.53 298.77 198.54 291.82 204.49" />
      <path stroke-linecap="round" stroke-width="0.75" stroke="#FFFFFF" fill="none" d="M291.82 204.49L269.09 177.93 269.09 177.93C278.36 170 288.62 163.32 299.62 158.05L299.63 158.05 314.72 189.58 314.72 189.58C306.47 193.53 298.77 198.54 291.82 204.49" />
    </g>
    <g transform="matrix(0.54562813, 0.8380274, -0.8380274, 0.54562813, 177.209656, 51.1577148)"><text font-family="Calibri" font-style="normal" font-weight="normal" font-stretch="normal" font-size="8.9775pt" fill="#FFFFFF" x="8.875" y="25.56792"><tspan x="0.04270554" y="11.20392">Result</tspan><tspan xml:space="preserve" x="29.95729" y="11.20392"> </tspan><tspan x="8.875" y="25.56792">10</tspan></text></g>
    <g transform="matrix(1, 0, 0, 1, -120, -110)">
      <path fill="#C0504D" d="M290.48 291.58L255.72 295.29 255.72 295.29C251.01 251.11 274.65 208.76 314.72 189.58L314.72 189.58 329.81 221.11 329.81 221.11C303.1 233.9 287.34 262.13 290.48 291.58" />
      <path stroke-linecap="round" stroke-width="0.75" stroke="#FFFFFF" fill="none" d="M290.48 291.58L255.72 295.29 255.72 295.29C251.01 251.11 274.65 208.76 314.72 189.58L314.72 189.58 329.81 221.11 329.81 221.11C303.1 233.9 287.34 262.13 290.48 291.58" />
    </g>
    <g transform="matrix(0.8731934, 0.4873739, -0.4873739, 0.8731934, 156.785217, 111.119873)"><text font-family="Calibri" font-style="normal" font-weight="normal" font-stretch="normal" font-size="8.9775pt" fill="#FFFFFF" x="12.9375" y="25.56792"><tspan x="0.1449881" y="11.20392">Resurs</tspan><tspan xml:space="preserve" x="31.85501" y="11.20392"> </tspan><tspan x="12.9375" y="25.56792">4</tspan></text></g>
    <g transform="matrix(1, 0, 0, 1, -120, -110)">
      <path fill="#C0504D" d="M329.81 221.11L314.72 189.58 314.72 189.58C323.32 185.47 332.43 182.54 341.82 180.89L341.82 180.89 347.88 215.32 347.88 215.32C341.62 216.42 335.54 218.37 329.81 221.11" />
      <path stroke-linecap="round" stroke-width="0.75" stroke="#FFFFFF" fill="none" d="M329.81 221.11L314.72 189.58 314.72 189.58C323.32 185.47 332.43 182.54 341.82 180.89L341.82 180.89 347.88 215.32 347.88 215.32C341.62 216.42 335.54 218.37 329.81 221.11" />
    </g>
    <g transform="matrix(0.3053898, 0.9522274, -0.9522274, 0.3053898, 222.232239, 71.29065)"><text font-family="Calibri" font-style="normal" font-weight="normal" font-stretch="normal" font-size="8.9775pt" fill="#FFFFFF" x="12.9375" y="25.56792"><tspan x="0.1449881" y="11.20392">Resurs</tspan><tspan xml:space="preserve" x="31.85501" y="11.20392"> </tspan><tspan x="12.9375" y="25.56792">3</tspan></text></g>
    <g transform="matrix(1, 0, 0, 1, -120, -110)">
      <path fill="#C0504D" d="M347.88 215.32L341.82 180.89 341.82 180.89C347.82 179.83 353.91 179.3 360 179.3L360 179.3 360 214.26 360 214.26C355.94 214.26 351.88 214.61 347.88 215.32" />
      <path stroke-linecap="round" stroke-width="0.75" stroke="#FFFFFF" fill="none" d="M347.88 215.32L341.82 180.89 341.82 180.89C347.82 179.83 353.91 179.3 360 179.3L360 179.3 360 214.26 360 214.26C355.94 214.26 351.88 214.61 347.88 215.32" />
      <path fill="#9BBB59" d="M280.88 353L254.51 375.95 254.51 375.95C248.17 368.67 242.61 360.75 237.9 352.32L237.9 352.32 268.43 335.28 268.43 335.28C271.96 341.6 276.13 347.54 280.88 353" />
      <path stroke-linecap="round" stroke-width="0.75" stroke="#FFFFFF" fill="none" d="M280.88 353L254.51 375.95 254.51 375.95C248.17 368.67 242.61 360.75 237.9 352.32L237.9 352.32 268.43 335.28 268.43 335.28C271.96 341.6 276.13 347.54 280.88 353" />
    </g>
    <g transform="matrix(0.818196535, -0.574938655, 0.574938655, 0.818196535, 119.284485, 241.275635)"><text font-family="Calibri" font-style="normal" font-weight="normal" font-stretch="normal" font-size="8.9775pt" fill="#FFFFFF" x="8.875" y="25.56792"><tspan x="0.04270554" y="11.20392">Result</tspan><tspan xml:space="preserve" x="29.95729" y="11.20392"> </tspan><tspan x="8.875" y="25.56792">13</tspan></text></g>
    <g transform="matrix(1, 0, 0, 1, -120, -110)">
      <path fill="#9BBB59" d="M268.43 335.28L237.9 352.32 237.9 352.32C233.94 345.23 230.61 337.8 227.94 330.12L227.94 330.12 260.95 318.64 260.95 318.64C262.96 324.39 265.46 329.96 268.43 335.28" />
      <path stroke-linecap="round" stroke-width="0.75" stroke="#FFFFFF" fill="none" d="M268.43 335.28L237.9 352.32 237.9 352.32C233.94 345.23 230.61 337.8 227.94 330.12L227.94 330.12 260.95 318.64 260.95 318.64C262.96 324.39 265.46 329.96 268.43 335.28" />
    </g>
    <g transform="matrix(0.912286341, -0.409553, 0.409553, 0.912286341, 108.759415, 217.1958)"><text font-family="Calibri" font-style="normal" font-weight="normal" font-stretch="normal" font-size="8.9775pt" fill="#FFFFFF" x="8.875" y="25.56792"><tspan x="0.04270554" y="11.20392">Result</tspan><tspan xml:space="preserve" x="29.95729" y="11.20392"> </tspan><tspan x="8.875" y="25.56792">12</tspan></text></g>
    <g transform="matrix(1, 0, 0, 1, -120, -110)">
      <path fill="#9BBB59" d="M394.19 383.31L405.59 416.36 405.59 416.36C363.56 430.86 317.13 424.5 280.54 399.23L280.54 399.23 300.41 370.47 300.41 370.47C327.85 389.42 362.67 394.19 394.19 383.31" />
      <path stroke-linecap="round" stroke-width="0.75" stroke="#FFFFFF" fill="none" d="M394.19 383.31L405.59 416.36 405.59 416.36C363.56 430.86 317.13 424.5 280.54 399.23L280.54 399.23 300.41 370.47 300.41 370.47C327.85 389.42 362.67 394.19 394.19 383.31" />
    </g>
    <g transform="matrix(0.135697424, -0.9907503, 0.9907503, 0.135697424, 206.996124, 308.283447)"><text font-family="Calibri" font-style="normal" font-weight="normal" font-stretch="normal" font-size="8.9775pt" fill="#FFFFFF" x="8.875" y="25.56792"><tspan x="0.04270554" y="11.20392">Result</tspan><tspan xml:space="preserve" x="29.95729" y="11.20392"> </tspan><tspan x="8.875" y="25.56792">14</tspan></text></g>
    <g transform="matrix(1, 0, 0, 1, -120, -110)">
      <path fill="#9BBB59" d="M300.41 370.47L280.54 399.23 280.54 399.23C270.93 392.59 262.18 384.77 254.51 375.95L254.51 375.95 280.88 353 280.88 353C286.63 359.62 293.19 365.49 300.41 370.47" />
      <path stroke-linecap="round" stroke-width="0.75" stroke="#FFFFFF" fill="none" d="M300.41 370.47L280.54 399.23 280.54 399.23C270.93 392.59 262.18 384.77 254.51 375.95L254.51 375.95 280.88 353 280.88 353C286.63 359.62 293.19 365.49 300.41 370.47" />
    </g>
    <g transform="matrix(0.666564047, -0.745447755, 0.745447755, 0.666564047, 137.638763, 266.893677)"><text font-family="Calibri" font-style="normal" font-weight="normal" font-stretch="normal" font-size="8.9775pt" fill="#FFFFFF" x="8.875" y="25.56792"><tspan x="0.04270554" y="11.20392">Result</tspan><tspan xml:space="preserve" x="29.95729" y="11.20392"> </tspan><tspan x="8.875" y="25.56792">15</tspan></text></g>
    <g transform="matrix(1, 0, 0, 1, -120, -110)">
      <path fill="#9BBB59" d="M382.8 350.27L394.19 383.31 394.19 383.31C353.78 397.25 308.94 385.26 280.88 353L280.88 353 307.25 330.06 307.25 330.06C325.96 351.56 355.85 359.56 382.8 350.27" />
      <path stroke-linecap="round" stroke-width="0.75" stroke="#FFFFFF" fill="none" d="M382.8 350.27L394.19 383.31 394.19 383.31C353.78 397.25 308.94 385.26 280.88 353L280.88 353 307.25 330.06 307.25 330.06C325.96 351.56 355.85 359.56 382.8 350.27" />
    </g>
    <g transform="matrix(0.258380681, -0.9660432, 0.9660432, 0.258380681, 199.27774, 270.307129)"><text font-family="Calibri" font-style="normal" font-weight="normal" font-stretch="normal" font-size="8.9775pt" fill="#FFFFFF" x="12.9375" y="25.56792"><tspan x="0.1449881" y="11.20392">Resurs</tspan><tspan xml:space="preserve" x="31.85501" y="11.20392"> </tspan><tspan x="12.9375" y="25.56792">6</tspan></text></g>
    <g transform="matrix(1, 0, 0, 1, -120, -110)">
      <path fill="#9BBB59" d="M307.25 330.06L280.88 353 280.88 353C272.11 342.92 265.35 331.26 260.95 318.64L260.95 318.64 293.97 307.15C296.9 315.56 301.41 323.34 307.25 330.06" />
      <path stroke-linecap="round" stroke-width="0.75" stroke="#FFFFFF" fill="none" d="M307.25 330.06L280.88 353 280.88 353C272.11 342.92 265.35 331.26 260.95 318.64L260.95 318.64 293.97 307.15C296.9 315.56 301.41 323.34 307.25 330.06" />
    </g>
    <g transform="matrix(0.865116358, -0.5015712, 0.5015712, 0.865116358, 143.28064, 213.486511)"><text font-family="Calibri" font-style="normal" font-weight="normal" font-stretch="normal" font-size="8.9775pt" fill="#FFFFFF" x="12.9375" y="25.56792"><tspan x="0.1449881" y="11.20392">Resurs</tspan><tspan xml:space="preserve" x="31.85501" y="11.20392"> </tspan><tspan x="12.9375" y="25.56792">5</tspan></text></g>
    <g transform="matrix(1, 0, 0, 1, -120, -110)">
      <path fill="#9BBB59" d="M293.97 307.15L260.95 318.64 260.95 318.64C258.32 311.08 256.57 303.24 255.72 295.29L255.72 295.29 290.48 291.58 290.48 291.58C291.05 296.89 292.22 302.11 293.97 307.15" />
      <path stroke-linecap="round" stroke-width="0.75" stroke="#FFFFFF" fill="none" d="M293.97 307.15L260.95 318.64 260.95 318.64C258.32 311.08 256.57 303.24 255.72 295.29L255.72 295.29 290.48 291.58 290.48 291.58C291.05 296.89 292.22 302.11 293.97 307.15" />
    </g>
    <g transform="matrix(0.975786, -0.218727574, 0.218727574, 0.975786, 136.915314, 182.419159)"><text font-family="Calibri" font-style="normal" font-weight="normal" font-stretch="normal" font-size="8.9775pt" fill="#FFFFFF" x="8.875" y="25.56792"><tspan x="0.04270554" y="11.20392">Result</tspan><tspan xml:space="preserve" x="29.95729" y="11.20392"> </tspan><tspan x="8.875" y="25.56792">16</tspan></text></g>
    <g transform="matrix(1, 0, 0, 1, -120, -110)">
      <path fill="#4F81BD" d="M360 249.21L360 214.26 360 214.26C398.61 214.26 429.91 245.56 429.91 284.17 429.91 314 410.99 340.54 382.8 350.27L382.8 350.27 371.4 317.22 371.4 317.22C389.65 310.92 399.34 291.03 393.05 272.77 388.18 258.68 374.91 249.21 360 249.21" />
      <path stroke-linecap="round" stroke-width="0.75" stroke="#FFFFFF" fill="none" d="M360 249.21L360 214.26 360 214.26C398.61 214.26 429.91 245.56 429.91 284.17 429.91 314 410.99 340.54 382.8 350.27L382.8 350.27 371.4 317.22 371.4 317.22C389.65 310.92 399.34 291.03 393.05 272.77 388.18 258.68 374.91 249.21 360 249.21" />
    </g>
    <g transform="matrix(0.9862431, -0.165301338, 0.165301338, 0.9862431, 275.187653, 160.669678)"><text font-family="Calibri" font-style="normal" font-weight="normal" font-stretch="normal" font-size="8.9775pt" fill="#FFFFFF" x="0.3302269" y="11.20392"><tspan x="0.3302269" y="11.20392">Vetv 1</tspan></text></g>
    <g transform="matrix(1, 0, 0, 1, -120, -110)">
      <path fill="#9BBB59" d="M371.4 317.22L382.8 350.27 382.8 350.27C346.29 362.86 306.5 343.47 293.91 306.97 292.19 301.98 291.04 296.82 290.48 291.58L290.48 291.58 325.24 287.88C327.29 307.07 344.51 320.98 363.7 318.93 366.33 318.65 368.91 318.08 371.4 317.22" />
      <path stroke-linecap="round" stroke-width="0.75" stroke="#FFFFFF" fill="none" d="M371.4 317.22L382.8 350.27 382.8 350.27C346.29 362.86 306.5 343.47 293.91 306.97 292.19 301.98 291.04 296.82 290.48 291.58L290.48 291.58 325.24 287.88C327.29 307.07 344.51 320.98 363.7 318.93 366.33 318.65 368.91 318.08 371.4 317.22" />
    </g>
    <g transform="matrix(0.5364701, -0.843919337, 0.843919337, 0.5364701, 197.22525, 227.480591)"><text font-family="Calibri" font-style="normal" font-weight="normal" font-stretch="normal" font-size="8.9775pt" fill="#FFFFFF" x="0.3302269" y="11.20392"><tspan x="0.3302269" y="11.20392">Vetv 3</tspan></text></g>
    <g transform="matrix(1, 0, 0, 1, -120, -110)">
      <path fill="#C0504D" d="M325.24 287.88L290.48 291.58 290.48 291.58C286.39 253.19 314.2 218.74 352.59 214.65 355.05 214.39 357.52 214.26 360 214.26L360 214.26 360 249.21 360 249.21C340.69 249.22 325.04 264.87 325.04 284.17 325.04 285.41 325.11 286.65 325.24 287.88" />
      <path stroke-linecap="round" stroke-width="0.75" stroke="#FFFFFF" fill="none" d="M325.24 287.88L290.48 291.58 290.48 291.58C286.39 253.19 314.2 218.74 352.59 214.65 355.05 214.39 357.52 214.26 360 214.26L360 214.26 360 249.21 360 249.21C340.69 249.22 325.04 264.87 325.04 284.17 325.04 285.41 325.11 286.65 325.24 287.88" />
    </g>
    <g transform="matrix(0.7436304, 0.6685909, -0.6685909, 0.7436304, 194.495544, 123.173691)"><text font-family="Calibri" font-style="normal" font-weight="normal" font-stretch="normal" font-size="8.9775pt" fill="#FFFFFF" x="0.3302269" y="11.20392"><tspan x="0.3302269" y="11.20392">Vetv 2</tspan></text></g>
    <g transform="matrix(1, 0, 0, 1, -120, -110)">
      <path stroke-width="0.75" stroke="#000000" stroke-opacity="0" fill="#000000" fill-opacity="0" d="M320.69 116L399.31 116 399.31 138.34 320.69 138.34z" />
    </g>
    <g transform="matrix(1, 0, 0, 1, 200.5, 5.671997)"><text font-family="Calibri" font-style="normal" font-weight="normal" font-stretch="normal" font-size="13.965pt" fill="#595959" x="0.1875" y="18.01216"><tspan x="0.1875" y="18.01216">Chart Title</tspan></text></g>
    <g transform="matrix(1, 0, 0, 1, -120, -110)">
      <path stroke-width="0.75" stroke="#000000" stroke-opacity="0" fill="#000000" fill-opacity="0" d="M120 110L600 110 600 430 120 430z" />
    </g>
  </g>
</svg>