<?xml version="1.0" encoding="utf-8" standalone="yes"?>
<!DOCTYPE svg PUBLIC "-//W3C//DTD SVG 1.1//EN" "http://www.w3.org/Graphics/SVG/1.1/DTD/svg11.dtd">
<svg version="1.1" xmlns="http://www.w3.org/2000/svg" xmlns:xlink="http://www.w3.org/1999/xlink" width="1.958333in" height="6.222222in" class="slides-canvas" viewBox="0 0 141 448">
  <g text-rendering="geometricPrecision" transform="scale(1, 1)">
    <g transform="matrix(1, 0, 0, 1, -0.459442139, 0.195281982)">
      <rect x="0" y="0" width="70" height="70" fill="#4F81BD" />
      <rect x="70" y="0" width="70" height="70" fill="#4F81BD" />
      <rect x="0" y="70" width="70" height="307.2" fill="#D0D8E8" />
      <rect x="70" y="70" width="70" height="307.2" fill="#D0D8E8" />
      <rect x="0" y="377.2" width="70" height="70" fill="#E9EDF4" />
      <rect x="70" y="377.2" width="70" height="70" fill="#E9EDF4" />
      <path stroke-width="1" stroke="#FFFFFF" fill="none" d="M0 0L0 70" />
      <path stroke-width="1" stroke="#FFFFFF" fill="none" d="M0 70L0 377.2" />
      <path stroke-width="1" stroke="#FFFFFF" fill="none" d="M0 377.2L0 447.2" />
      <path stroke-width="1" stroke="#FFFFFF" fill="none" d="M70 0L70 70" />
      <path stroke-width="1" stroke="#FFFFFF" fill="none" d="M70 70L70 377.2" />
      <path stroke-width="1" stroke="#FFFFFF" fill="none" d="M70 377.2L70 447.2" />
      <path stroke-width="1" stroke="#FFFFFF" fill="none" d="M140 0L140 70" />
      <path stroke-width="1" stroke="#FFFFFF" fill="none" d="M140 70L140 377.2" />
      <path stroke-width="1" stroke="#FFFFFF" fill="none" d="M140 377.2L140 447.2" />
      <path stroke-width="1" stroke="#FFFFFF" fill="none" d="M0 0L70 0" />
      <path stroke-width="1" stroke="#FFFFFF" fill="none" d="M70 0L140 0" />
      <path stroke-width="3" stroke="#FFFFFF" fill="none" d="M0 70L70 70" />
      <path stroke-width="3" stroke="#FFFFFF" fill="none" d="M70 70L140 70" />
      <path stroke-width="1" stroke="#FFFFFF" fill="none" d="M0 377.2L70 377.2" />
      <path stroke-width="1" stroke="#FFFFFF" fill="none" d="M70 377.2L140 377.2" />
      <path stroke-width="1" stroke="#FFFFFF" fill="none" d="M0 447.2L70 447.2" />
      <path stroke-width="1" stroke="#FFFFFF" fill="none" d="M70 447.2L140 447.2" />
    </g>
    <g transform="matrix(1, 0, 0, 1, 6.74055767, 3.795282)"><text font-family="Calibri" font-style="normal" font-weight="bold" font-stretch="normal" font-size="13.5pt" fill="#FFFFFF" x="7.987499" y="38.448"><tspan x="1.549999" y="16.848">header</tspan><tspan xml:space="preserve" x="54.05" y="16.848"> </tspan><tspan x="7.987499" y="38.448" xml:space="preserve">+ 0</tspan><tspan xml:space="preserve" x="30.2375" y="38.448">  </tspan><tspan x="38.4875" y="38.448" xml:space="preserve">0</tspan></text></g>
    <g transform="matrix(1, 0, 0, 1, 76.7405548, 3.795282)"><text font-family="Calibri" font-style="normal" font-weight="bold" font-stretch="normal" font-size="13.5pt" fill="#FFFFFF" x="0" y="38.448"><tspan x="0" y="16.848">header</tspan><tspan xml:space="preserve" x="52.5" y="16.848"> </tspan><tspan x="0" y="38.448" xml:space="preserve">+ 0</tspan><tspan xml:space="preserve" x="22.25" y="38.448">  </tspan><tspan x="30.5" y="38.448" xml:space="preserve">1</tspan></text></g>
    <g transform="matrix(1, 0, 0, 1, 6.74055767, 73.79528)"><text font-family="Calibri" font-style="normal" font-weight="normal" font-stretch="normal" font-size="13.5pt" fill="#000000" x="23.2375" y="38.448"><tspan x="2.174999" y="16.848" xml:space="preserve">cell + 1</tspan><tspan xml:space="preserve" x="53.425" y="16.848">  </tspan><tspan x="23.2375" y="38.448">0</tspan></text></g>
    <g transform="matrix(1, 0, 0, 1, 76.7405548, 73.79528)">
      <path fill="#0000FF" d="M0 50.3L44.78 50.3 44.78 53.3 0 53.3z" />
      <path fill="#000000" d="M0 33.47L44.78 33.47 44.78 36.33 0 36.33z" />
      <path fill="#0000FF" d="M0 110.3L24.56 110.3 24.56 113.3 0 113.3z" />
      <path fill="#000000" d="M0 93.47L24.56 93.47 24.56 96.33 0 96.33z" />
      <path fill="#0000FF" d="M0 170.3L24.9 170.3 24.9 173.3 0 173.3z" />
      <path fill="#000000" d="M0 153.47L24.9 153.47 24.9 156.33 0 156.33z" />
      <path fill="#0000FF" d="M0 230.3L25.34 230.3 25.34 233.3 0 233.3z" />
      <path fill="#000000" d="M0 213.47L25.34 213.47 25.34 216.33 0 216.33z" />
      <path fill="#0000FF" d="M0 290.3L25.34 290.3 25.34 293.3 0 293.3z" />
      <path fill="#000000" d="M0 273.47L25.34 273.47 25.34 276.33 0 276.33z" /><text font-family="Calibri" font-style="italic" font-weight="bold" font-stretch="normal" font-size="37.5pt" fill="#0000FF" x="0" y="286.8"><a xlink:href="http://www.aspose.com"><tspan x="0" y="46.8" fill="#0000FF">ce</tspan></a><a xlink:href="http://www.aspose.com"><tspan x="0" y="106.8" fill="#0000FF">ll</tspan><tspan xml:space="preserve" x="24.56055" y="106.8" fill="#0000FF"> </tspan></a><a xlink:href="http://www.aspose.com"><tspan x="0" y="166.8" fill="#0000FF">+</tspan><tspan xml:space="preserve" x="24.90234" y="166.8" fill="#0000FF"> </tspan></a><a xlink:href="http://www.aspose.com"><tspan x="0" y="226.8" fill="#0000FF" xml:space="preserve">1</tspan><tspan xml:space="preserve" x="25.3418" y="226.8" fill="#0000FF">  </tspan></a><a xlink:href="http://www.aspose.com"><tspan x="0" y="286.8" fill="#0000FF">1</tspan></a></text></g>
    <g transform="matrix(1, 0, 0, 1, 6.74055767, 380.9953)"><text font-family="Calibri" font-style="normal" font-weight="normal" font-stretch="normal" font-size="13.5pt" fill="#000000" x="23.2375" y="38.448"><tspan x="2.174999" y="16.848" xml:space="preserve">cell + 2</tspan><tspan xml:space="preserve" x="53.425" y="16.848">  </tspan><tspan x="23.2375" y="38.448">0</tspan></text></g>
    <g transform="matrix(1, 0, 0, 1, 76.7405548, 380.9953)"><text font-family="Calibri" font-style="normal" font-weight="normal" font-stretch="normal" font-size="13.5pt" fill="#000000" x="0" y="38.448"><tspan x="0" y="16.848" xml:space="preserve">cell + 2</tspan><tspan xml:space="preserve" x="51.25" y="16.848">  </tspan><tspan x="0" y="38.448">1</tspan></text></g>
  </g>
</svg>